<?xml version="1.0" encoding="utf-8"?>
<!-- Generator: Adobe Illustrator 24.1.1, SVG Export Plug-In . SVG Version: 6.00 Build 0)  -->
<svg version="1.1" id="Layer_1" xmlns="http://www.w3.org/2000/svg" xmlns:xlink="http://www.w3.org/1999/xlink" x="0px" y="0px"
	 viewBox="0 0 94.9714 166.2451" enable-background="new 0 0 94.9714 166.2451" xml:space="preserve">
<g>
	<circle cx="48.8504" cy="22.5" r="22.5"/>
	<path d="M24.5276,137.0377c3.4122-0.0429,6.1192-0.2072,8.132-1.1154l-9.4496,8.5572c-5.1172,4.6338-5.5088,12.5381-0.875,17.6563
		c2.4668,2.7246,5.8623,4.1093,9.2695,4.1093c2.9922,0,5.9942-1.0673,8.3868-3.2343l14.6493-13.2652l27.6837-25.0678
		c4.1367-3.7461,5.289-9.7803,2.8232-14.7871c-2.4648-5.0079-7.9561-7.7754-13.4414-6.7784l-32.3956,5.8682l-2.9046,0.5262
		c0.0876-2.8805,0.2998-5.7771,0.6035-8.6608l-16.9156-28.756c-2.8799-4.8955-1.2393-11.2207,3.6562-14.1006
		c1.583-0.9307,3.3858-1.4229,5.2139-1.4229c3.6377,0,7.043,1.9453,8.8857,5.0782l4.6868,7.9676
		c2.2943-9.7095-1.4881-20.8327-9.708-22.8811c-8.537-2.129-20.912,2.5078-25.9473,17.1503
		C0.0765,84.0553-1.3864,97.1861,1.1996,119.401C4.3284,135.5025,15.3636,137.1549,24.5276,137.0377z"/>
	<path d="M83.8682,126.3828l-10.5847,9.5846l8.0818,7.9399c1.5576,1.5302,3.582,2.2929,5.6064,2.2929
		c2.0703,0,4.1406-0.7998,5.7071-2.3935c3.0957-3.1514,3.0507-8.2168-0.1006-11.3135l-7.4971-7.3655
		C84.7018,125.5641,84.3041,125.9881,83.8682,126.3828z"/>
	<path d="M35.8672,62.8106c-2.2402-3.8076-7.1435-5.0781-10.9511-2.8389c-3.8086,2.2402-5.0801,7.1436-2.8399,10.9522l20,34
		c0.2255,0.3828,0.4927,0.7376,0.7781,1.0777l19.2163-3.4809l-6.7385-6.6203L35.8672,62.8106z"/>
</g>
</svg>
