<?xml version="1.0" encoding="utf-8"?>
<!-- Generator: Adobe Illustrator 24.1.1, SVG Export Plug-In . SVG Version: 6.00 Build 0)  -->
<svg version="1.1" id="Layer_1" xmlns="http://www.w3.org/2000/svg" xmlns:xlink="http://www.w3.org/1999/xlink" x="0px" y="0px"
	 viewBox="0 0 88.9618 169.012" enable-background="new 0 0 88.9618 169.012" xml:space="preserve">
<g>
	<path d="M42.0311,152.8069l5.8916-22.8056l-10.0459,6.6172c-2.4219,1.5947-5.2334,2.4384-8.1309,2.4384l-0.1055-0.0009
		c-1.5948,0.2051-3.3676,0.2574-4.9253,0.2783l6.7848,4.2664H13.8603c-6.9038,0-12.5,5.5967-12.5,12.5
		c0,6.9033,5.5967,12.5,12.5,12.5l33.9936-0.0005C42.9681,165.1539,40.4492,158.9307,42.0311,152.8069z"/>
	<path d="M64.881,168.5999l9.9793-0.0002c5.5703,0,10.4682-3.6855,12.0107-9.0381c1.543-5.3515-0.6416-11.0791-5.3569-14.0439
		l-6.0468-3.8022l-4.778,18.4957C69.7862,163.7068,67.6749,166.6288,64.881,168.5999z"/>
	<circle cx="48.8506" cy="22.5" r="22.5"/>
	<path d="M37.1784,109.327c-3.2509-0.9131-5.8505-3.3623-6.9541-6.5528l-11.75-34.0009c-1.8544-5.3682,1.004-11.2442,6.3711-13.0997
		c1.0899-0.3759,2.2217-0.5673,3.3653-0.5673c4.3877,0,8.2998,2.788,9.7344,6.9375l3.8267,11.0741
		c0.1637-0.8139,0.3243-1.6169,0.4765-2.3947c2.8692-9.9531-0.8847-21.8652-9.4199-23.9922
		c-8.5371-2.1289-20.9121,2.5078-25.9473,17.1504c-6.8046,20.1738-8.2675,33.3047-5.6816,55.5195
		c3.1289,16.1016,14.1641,17.7539,23.3281,17.6368c1.8692-0.0235,3.523-0.0855,4.9712-0.2837
		c2.4405,0.0483,4.9199-0.6116,7.1123-2.0564l15.0313-9.9014l-7.3848,28.5859c-1.7265,6.6846,2.292,13.503,8.9756,15.2295
		c1.0488,0.2715,2.1006,0.4004,3.1357,0.4004c5.5625,0,10.6377-3.7412,12.0938-9.376l10.0099-38.7482
		c-0.0968-0.0242-0.1959-0.0339-0.2922-0.0608L37.1784,109.327z"/>
	<path d="M83.9627,99.636c1.293-5.0058-0.6279-10.29-4.834-13.2968c-4.2051-3.0039-9.8262-3.1123-14.1445-0.2686l-10.2848,6.7751
		l28.9219,8.1118L83.9627,99.636z"/>
	<path d="M83.1199,103.2059L46.1531,92.8377l-10.3819-30.042c-1.4433-4.1748-5.9951-6.3916-10.1748-4.9482
		c-4.1758,1.4433-6.3906,5.999-4.9482,10.1748l11.75,34c0.8574,2.4795,2.875,4.3808,5.4013,5.0898l41,11.5
		c0.7227,0.2022,1.4493,0.2988,2.1641,0.2988c3.4961,0,6.708-2.3095,7.6992-5.8417
		C89.8552,108.8152,87.3747,104.3992,83.1199,103.2059z"/>
</g>
</svg>
