<?xml version="1.0" encoding="utf-8"?>
<!-- Generator: Adobe Illustrator 24.1.1, SVG Export Plug-In . SVG Version: 6.00 Build 0)  -->
<svg version="1.1" id="Layer_1" xmlns="http://www.w3.org/2000/svg" xmlns:xlink="http://www.w3.org/1999/xlink" x="0px" y="0px"
	 viewBox="0 0 260.9146 45.0287" enable-background="new 0 0 260.9146 45.0287" xml:space="preserve">
<g>
	<circle cx="22.5" cy="22.5" r="22.5"/>
	<path d="M50.3979,30.9415c0.7601,8.7631,6.2968,13.8526,22.215,13.8526c8.6765,0,20.1228,0,30.4848,0l-32.9903-7.9892
		c-2.6738-0.6475-4.9356-2.2979-6.3692-4.6465c-1.4326-2.3487-1.8652-5.1143-1.2177-7.7881
		c1.123-4.6387,5.2383-7.8779,10.0068-7.8779c0.8145,0,1.6318,0.0976,2.4287,0.291l40.3047,9.7607h50.2705
		c5.6797,0,10.2998,4.6201,10.2998,10.2998c0,0.4909-0.0464,0.9699-0.1131,1.4426l71.5332,6.6866
		c0.3955,0.0371,0.788,0.0556,1.1777,0.0556c6.3789,0,11.8252-4.8593,12.4307-11.3378c0.6425-6.8731-4.4082-12.9668-11.2823-13.6084
		L107.3347,6.7863c-11.6615-1.632-22.1091-1.1147-35.9246,1.2231C56.1585,10.6827,49.6359,22.176,50.3979,30.9415z"/>
	<path d="M173.5312,36.8439c0-4.4179-3.582-8-8-8h-50.5449L74.414,19.0187c-4.2881-1.039-8.6181,1.5977-9.6582,5.8926
		c-1.04,4.294,1.5987,8.6182,5.8926,9.6582l41.5,10.0498c0.6162,0.1494,1.248,0.2246,1.8828,0.2246h51.5
		C169.9492,44.8439,173.5312,41.2619,173.5312,36.8439z"/>
</g>
</svg>
