<?xml version="1.0" encoding="utf-8"?>
<!-- Generator: Adobe Illustrator 24.1.1, SVG Export Plug-In . SVG Version: 6.00 Build 0)  -->
<svg version="1.1" id="Layer_1" xmlns="http://www.w3.org/2000/svg" xmlns:xlink="http://www.w3.org/1999/xlink" x="0px" y="0px"
	 viewBox="0 0 155.9573 137.3674" enable-background="new 0 0 155.9573 137.3674" xml:space="preserve">
<g>
	<path d="M69.2962,113.6467l-30.6406,22.2051c-0.628,0.4549-1.2926,0.8356-1.9729,1.182h61.6081
		c-0.3032-0.2095-0.6023-0.4259-0.8901-0.6586L69.2962,113.6467z"/>
	<path d="M118.2152,134.174c-0.9044,1.118-1.9615,2.0641-3.112,2.8598h28.3541c6.9034,0,12.5-5.5966,12.5-12.5
		c0-6.9033-5.5966-12.5-12.5-12.5h-29.0826l1.6393,1.3258C122.3587,118.4914,123.347,127.8283,118.2152,134.174z"/>
	<circle cx="48.8504" cy="22.5" r="22.5"/>
	<path d="M24.5277,137.0378c3.0258-0.0381,5.4941-0.1743,7.4189-0.8369c1.877-0.2988,3.7148-1.0198,5.3594-2.2114l32.0674-23.2393
		l29.4736,23.8369c2.3135,1.8711,5.0918,2.7803,7.8525,2.7803c3.6446,0,7.2569-1.5859,9.7276-4.6397
		c4.3408-5.3681,3.5088-13.2382-1.8594-17.58L85.8629,91.9328l-25.4788,1.8838c-0.2539,0.0186-0.5068,0.0274-0.7598,0.0274
		c-1.9443,0-3.8418-0.5479-5.4882-1.584l-0.9911-0.6242l-16.3869,11.8751c0.5918-6.9723,1.766-13.9092,2.9975-20.3079L23.9681,73.26
		c-4.8057-3.0264-6.2529-9.3994-3.2266-14.2051c1.8985-3.0127,5.1592-4.8115,8.7246-4.8115c1.9385,0,3.834,0.5478,5.4805,1.5849
		l8.0737,5.0853c-0.8122-6.7867-4.399-12.7388-10.1919-14.1824C24.2913,44.602,11.9163,49.239,6.8812,63.8813
		C0.0765,84.0554-1.3864,97.186,1.1995,119.4011C4.3284,135.5024,15.3636,137.155,24.5277,137.0378z"/>
	<path d="M33.721,57.7746c-3.7383-2.3545-8.6787-1.2314-11.0332,2.5059c-2.3545,3.7392-1.2324,8.6787,2.5059,11.0332l30.167,19
		c1.2802,0.8056,2.7588,1.2305,4.2636,1.2305c0.1963,0,0.3926-0.0069,0.5899-0.0215l42.833-3.167
		c4.4062-0.3262,7.7139-4.1621,7.3887-8.5684c-0.3262-4.4072-4.1807-7.7041-8.5684-7.3887l-40.207,2.9737L33.721,57.7746z"/>
</g>
</svg>
