<?xml version="1.0" encoding="utf-8"?>
<!-- Generator: Adobe Illustrator 24.1.1, SVG Export Plug-In . SVG Version: 6.00 Build 0)  -->
<svg version="1.1" id="Layer_1" xmlns="http://www.w3.org/2000/svg" xmlns:xlink="http://www.w3.org/1999/xlink" x="0px" y="0px"
	 viewBox="0 0 100.0128 237.1826" enable-background="new 0 0 100.0128 237.1826" xml:space="preserve">
<g>
	<path d="M83.7159,56.9684c-5.5974-5.2601-11.0669-6.1743-13.8886-6.2448c-0.1672-0.0108-0.3334-0.0254-0.5032-0.0254H30.6893
		c-0.1669,0-0.33,0.0145-0.4942,0.025c-2.8178,0.0681-8.2939,0.9776-13.8991,6.2442C3.4039,69.0812-1.8803,96.6447,0.5914,138.8932
		c0.2485,4.252,3.7739,7.5332,7.979,7.5327c0.1572,0,0.3159-0.0044,0.4746-0.0136c4.4107-0.2579,7.7769-4.043,7.5191-8.4537
		c-2.0556-35.1396,1.9263-53.8707,6.3967-63.1679v33.0891v18.9395v98c0,6.8301,5.537,12.3633,12.3633,12.3633
		c6.8281,0,12.3652-5.5332,12.3652-12.3633v-90.2715h4.6348v90.2715c0,6.8301,5.5371,12.3633,12.3632,12.3633
		c6.8282,0,12.3653-5.5332,12.3653-12.3633v-98v-18.9395v-33.086c4.4703,9.2981,8.4516,28.0287,6.3962,63.1648
		c-0.2578,4.4107,3.1084,8.1958,7.5191,8.4537c0.1592,0.0092,0.3174,0.0136,0.4746,0.0136c4.2046,0,7.7305-3.2812,7.979-7.5327
		C101.8932,96.6457,96.609,69.0822,83.7159,56.9684z"/>
	<circle cx="50.0067" cy="22.5" r="22.5"/>
</g>
</svg>
